<svg xmlns="http://www.w3.org/2000/svg" width="100%" height="100%" viewBox="0 0 100 100">
  <g fill="#449d44">
    <path d="M50 38 a 12 12 0 0 0 0 24 a 12 12 0 0 0 0 -24"/>
    <path d="M50 24 a 26 26 0 0 0 0 52 a 26 26 0 0 0 0 -52 M50 28 a 22 22 0 1 1 0 44 a 22 22 0 0 1 0 -44"/>
    <path d="M50 12 a 38 38 0 0 0 0 76 a 38 38 0 0 0 0 -76 M50 16 a 34 34 0 1 1 0 68 a 34 34 0 0 1 0 -68"/>
    <path d="M50 0 a 50 50 0 0 0 0 100 a 50 50 0 0 0 0 -100 M50 4 a 46 46 0 1 1 0 92 a 46 46 0 0 1 0 -92"/>
  </g>
</svg>
